<mxfile host="app.diagrams.net" agent="Mozilla/5.0 (Windows NT 10.0; Win64; x64) AppleWebKit/537.36 (KHTML, like Gecko) Chrome/133.0.0.0 Safari/537.36 Edg/133.0.0.0" version="26.0.16">
  <diagram name="Page-1" id="vthF18iHibDMlRF6yj3p">
    <mxGraphModel dx="1747" dy="1011" grid="1" gridSize="10" guides="1" tooltips="1" connect="1" arrows="1" fold="1" page="1" pageScale="1" pageWidth="850" pageHeight="1100" math="0" shadow="0">
      <root>
        <mxCell id="0" />
        <mxCell id="1" parent="0" />
        <mxCell id="CDVn339J-_WxzRMTgr8X-63" style="edgeStyle=orthogonalEdgeStyle;rounded=0;orthogonalLoop=1;jettySize=auto;html=1;entryX=0.5;entryY=0;entryDx=0;entryDy=0;" edge="1" parent="1" source="CDVn339J-_WxzRMTgr8X-15" target="CDVn339J-_WxzRMTgr8X-35">
          <mxGeometry relative="1" as="geometry" />
        </mxCell>
        <mxCell id="CDVn339J-_WxzRMTgr8X-66" style="edgeStyle=orthogonalEdgeStyle;rounded=0;orthogonalLoop=1;jettySize=auto;html=1;entryX=0.5;entryY=0;entryDx=0;entryDy=0;" edge="1" parent="1" source="CDVn339J-_WxzRMTgr8X-15" target="CDVn339J-_WxzRMTgr8X-50">
          <mxGeometry relative="1" as="geometry">
            <Array as="points">
              <mxPoint x="417" y="487" />
              <mxPoint x="382" y="487" />
              <mxPoint x="382" y="632" />
              <mxPoint x="307" y="632" />
            </Array>
          </mxGeometry>
        </mxCell>
        <mxCell id="CDVn339J-_WxzRMTgr8X-15" value="Class PejabatPemerintah" style="swimlane;fontStyle=0;childLayout=stackLayout;horizontal=1;startSize=26;horizontalStack=0;resizeParent=1;resizeParentMax=0;resizeLast=0;collapsible=1;marginBottom=0;align=center;fontSize=14;" vertex="1" parent="1">
          <mxGeometry x="317" y="132" width="200" height="140" as="geometry" />
        </mxCell>
        <mxCell id="CDVn339J-_WxzRMTgr8X-16" value="- name" style="text;strokeColor=none;fillColor=none;spacingLeft=4;spacingRight=4;overflow=hidden;rotatable=0;points=[[0,0.5],[1,0.5]];portConstraint=eastwest;fontSize=12;whiteSpace=wrap;html=1;" vertex="1" parent="CDVn339J-_WxzRMTgr8X-15">
          <mxGeometry y="26" width="200" height="30" as="geometry" />
        </mxCell>
        <mxCell id="CDVn339J-_WxzRMTgr8X-17" value="- jabatan" style="text;strokeColor=none;fillColor=none;spacingLeft=4;spacingRight=4;overflow=hidden;rotatable=0;points=[[0,0.5],[1,0.5]];portConstraint=eastwest;fontSize=12;whiteSpace=wrap;html=1;" vertex="1" parent="CDVn339J-_WxzRMTgr8X-15">
          <mxGeometry y="56" width="200" height="30" as="geometry" />
        </mxCell>
        <mxCell id="CDVn339J-_WxzRMTgr8X-18" value="- abstract bekerja()&lt;div&gt;&lt;br&gt;&lt;/div&gt;&lt;div&gt;- abstract melayaniMasyarakat()&lt;/div&gt;" style="text;strokeColor=none;fillColor=none;spacingLeft=4;spacingRight=4;overflow=hidden;rotatable=0;points=[[0,0.5],[1,0.5]];portConstraint=eastwest;fontSize=12;whiteSpace=wrap;html=1;" vertex="1" parent="CDVn339J-_WxzRMTgr8X-15">
          <mxGeometry y="86" width="200" height="54" as="geometry" />
        </mxCell>
        <mxCell id="CDVn339J-_WxzRMTgr8X-35" value="Gubernur" style="swimlane;fontStyle=0;childLayout=stackLayout;horizontal=1;startSize=26;horizontalStack=0;resizeParent=1;resizeParentMax=0;resizeLast=0;collapsible=1;marginBottom=0;align=center;fontSize=14;" vertex="1" parent="1">
          <mxGeometry x="217" y="362" width="140" height="200" as="geometry" />
        </mxCell>
        <mxCell id="CDVn339J-_WxzRMTgr8X-36" value="- name" style="text;strokeColor=none;fillColor=none;spacingLeft=4;spacingRight=4;overflow=hidden;rotatable=0;points=[[0,0.5],[1,0.5]];portConstraint=eastwest;fontSize=12;whiteSpace=wrap;html=1;" vertex="1" parent="CDVn339J-_WxzRMTgr8X-35">
          <mxGeometry y="26" width="140" height="30" as="geometry" />
        </mxCell>
        <mxCell id="CDVn339J-_WxzRMTgr8X-37" value="- jabatan" style="text;strokeColor=none;fillColor=none;spacingLeft=4;spacingRight=4;overflow=hidden;rotatable=0;points=[[0,0.5],[1,0.5]];portConstraint=eastwest;fontSize=12;whiteSpace=wrap;html=1;" vertex="1" parent="CDVn339J-_WxzRMTgr8X-35">
          <mxGeometry y="56" width="140" height="30" as="geometry" />
        </mxCell>
        <mxCell id="CDVn339J-_WxzRMTgr8X-38" value="- bekerja()&lt;div&gt;&lt;br&gt;&lt;/div&gt;&lt;div&gt;- melayaniMasyarakat()&lt;br&gt;&lt;div&gt;&lt;br&gt;&lt;/div&gt;&lt;div&gt;- buatKebijakan()&lt;/div&gt;&lt;div&gt;&lt;br&gt;&lt;/div&gt;&lt;div&gt;- evaluasiKebijakan()&lt;/div&gt;&lt;/div&gt;" style="text;strokeColor=none;fillColor=none;spacingLeft=4;spacingRight=4;overflow=hidden;rotatable=0;points=[[0,0.5],[1,0.5]];portConstraint=eastwest;fontSize=12;whiteSpace=wrap;html=1;" vertex="1" parent="CDVn339J-_WxzRMTgr8X-35">
          <mxGeometry y="86" width="140" height="114" as="geometry" />
        </mxCell>
        <mxCell id="CDVn339J-_WxzRMTgr8X-39" value="Walikota" style="swimlane;fontStyle=0;childLayout=stackLayout;horizontal=1;startSize=26;horizontalStack=0;resizeParent=1;resizeParentMax=0;resizeLast=0;collapsible=1;marginBottom=0;align=center;fontSize=14;" vertex="1" parent="1">
          <mxGeometry x="497" y="492" width="140" height="200" as="geometry" />
        </mxCell>
        <mxCell id="CDVn339J-_WxzRMTgr8X-40" value="- name" style="text;strokeColor=none;fillColor=none;spacingLeft=4;spacingRight=4;overflow=hidden;rotatable=0;points=[[0,0.5],[1,0.5]];portConstraint=eastwest;fontSize=12;whiteSpace=wrap;html=1;" vertex="1" parent="CDVn339J-_WxzRMTgr8X-39">
          <mxGeometry y="26" width="140" height="30" as="geometry" />
        </mxCell>
        <mxCell id="CDVn339J-_WxzRMTgr8X-41" value="- jabatan" style="text;strokeColor=none;fillColor=none;spacingLeft=4;spacingRight=4;overflow=hidden;rotatable=0;points=[[0,0.5],[1,0.5]];portConstraint=eastwest;fontSize=12;whiteSpace=wrap;html=1;" vertex="1" parent="CDVn339J-_WxzRMTgr8X-39">
          <mxGeometry y="56" width="140" height="30" as="geometry" />
        </mxCell>
        <mxCell id="CDVn339J-_WxzRMTgr8X-42" value="- bekerja()&lt;div&gt;&lt;br&gt;&lt;/div&gt;&lt;div&gt;- melayaniMasyarakat()&lt;br&gt;&lt;div&gt;&lt;br&gt;&lt;/div&gt;&lt;div&gt;- buatKebijakan()&lt;/div&gt;&lt;div&gt;&lt;br&gt;&lt;/div&gt;&lt;div&gt;- evaluasiKebijakan()&lt;/div&gt;&lt;/div&gt;" style="text;strokeColor=none;fillColor=none;spacingLeft=4;spacingRight=4;overflow=hidden;rotatable=0;points=[[0,0.5],[1,0.5]];portConstraint=eastwest;fontSize=12;whiteSpace=wrap;html=1;" vertex="1" parent="CDVn339J-_WxzRMTgr8X-39">
          <mxGeometry y="86" width="140" height="114" as="geometry" />
        </mxCell>
        <mxCell id="CDVn339J-_WxzRMTgr8X-50" value="Hakim" style="swimlane;fontStyle=0;childLayout=stackLayout;horizontal=1;startSize=26;horizontalStack=0;resizeParent=1;resizeParentMax=0;resizeLast=0;collapsible=1;marginBottom=0;align=center;fontSize=14;" vertex="1" parent="1">
          <mxGeometry x="238" y="732" width="140" height="210" as="geometry" />
        </mxCell>
        <mxCell id="CDVn339J-_WxzRMTgr8X-51" value="- name" style="text;strokeColor=none;fillColor=none;spacingLeft=4;spacingRight=4;overflow=hidden;rotatable=0;points=[[0,0.5],[1,0.5]];portConstraint=eastwest;fontSize=12;whiteSpace=wrap;html=1;" vertex="1" parent="CDVn339J-_WxzRMTgr8X-50">
          <mxGeometry y="26" width="140" height="30" as="geometry" />
        </mxCell>
        <mxCell id="CDVn339J-_WxzRMTgr8X-52" value="- jabatan" style="text;strokeColor=none;fillColor=none;spacingLeft=4;spacingRight=4;overflow=hidden;rotatable=0;points=[[0,0.5],[1,0.5]];portConstraint=eastwest;fontSize=12;whiteSpace=wrap;html=1;" vertex="1" parent="CDVn339J-_WxzRMTgr8X-50">
          <mxGeometry y="56" width="140" height="30" as="geometry" />
        </mxCell>
        <mxCell id="CDVn339J-_WxzRMTgr8X-53" value="- bekerja()&lt;div&gt;&lt;br&gt;&lt;/div&gt;&lt;div&gt;- melayaniMasyarakat()&lt;br&gt;&lt;div&gt;&lt;br&gt;&lt;/div&gt;&lt;div&gt;- menegakkanHukum()&lt;/div&gt;&lt;div&gt;&lt;br&gt;&lt;/div&gt;&lt;div&gt;- menjatuhkanSanksi()&lt;/div&gt;&lt;/div&gt;" style="text;strokeColor=none;fillColor=none;spacingLeft=4;spacingRight=4;overflow=hidden;rotatable=0;points=[[0,0.5],[1,0.5]];portConstraint=eastwest;fontSize=12;whiteSpace=wrap;html=1;" vertex="1" parent="CDVn339J-_WxzRMTgr8X-50">
          <mxGeometry y="86" width="140" height="124" as="geometry" />
        </mxCell>
        <mxCell id="CDVn339J-_WxzRMTgr8X-54" value="Interface PembuatKebijakan" style="swimlane;fontStyle=0;childLayout=stackLayout;horizontal=1;startSize=26;horizontalStack=0;resizeParent=1;resizeParentMax=0;resizeLast=0;collapsible=1;marginBottom=0;align=center;fontSize=14;" vertex="1" parent="1">
          <mxGeometry x="612" y="292" width="210" height="86" as="geometry" />
        </mxCell>
        <mxCell id="CDVn339J-_WxzRMTgr8X-55" value="- buatKebijakan()" style="text;strokeColor=none;fillColor=none;spacingLeft=4;spacingRight=4;overflow=hidden;rotatable=0;points=[[0,0.5],[1,0.5]];portConstraint=eastwest;fontSize=12;whiteSpace=wrap;html=1;" vertex="1" parent="CDVn339J-_WxzRMTgr8X-54">
          <mxGeometry y="26" width="210" height="30" as="geometry" />
        </mxCell>
        <mxCell id="CDVn339J-_WxzRMTgr8X-56" value="- evaluasiKebijakan()" style="text;strokeColor=none;fillColor=none;spacingLeft=4;spacingRight=4;overflow=hidden;rotatable=0;points=[[0,0.5],[1,0.5]];portConstraint=eastwest;fontSize=12;whiteSpace=wrap;html=1;" vertex="1" parent="CDVn339J-_WxzRMTgr8X-54">
          <mxGeometry y="56" width="210" height="30" as="geometry" />
        </mxCell>
        <mxCell id="CDVn339J-_WxzRMTgr8X-65" style="edgeStyle=orthogonalEdgeStyle;rounded=0;orthogonalLoop=1;jettySize=auto;html=1;entryX=0;entryY=0.5;entryDx=0;entryDy=0;" edge="1" parent="1" source="CDVn339J-_WxzRMTgr8X-58" target="CDVn339J-_WxzRMTgr8X-52">
          <mxGeometry relative="1" as="geometry">
            <Array as="points">
              <mxPoint x="125" y="792" />
              <mxPoint x="237" y="792" />
            </Array>
          </mxGeometry>
        </mxCell>
        <mxCell id="CDVn339J-_WxzRMTgr8X-58" value="Interface PenegakHukum" style="swimlane;fontStyle=0;childLayout=stackLayout;horizontal=1;startSize=26;horizontalStack=0;resizeParent=1;resizeParentMax=0;resizeLast=0;collapsible=1;marginBottom=0;align=center;fontSize=14;" vertex="1" parent="1">
          <mxGeometry x="27" y="242" width="195" height="86" as="geometry" />
        </mxCell>
        <mxCell id="CDVn339J-_WxzRMTgr8X-59" value="- menegakkanHukum()" style="text;strokeColor=none;fillColor=none;spacingLeft=4;spacingRight=4;overflow=hidden;rotatable=0;points=[[0,0.5],[1,0.5]];portConstraint=eastwest;fontSize=12;whiteSpace=wrap;html=1;" vertex="1" parent="CDVn339J-_WxzRMTgr8X-58">
          <mxGeometry y="26" width="195" height="30" as="geometry" />
        </mxCell>
        <mxCell id="CDVn339J-_WxzRMTgr8X-60" value="- menjatuhkanSanksi()" style="text;strokeColor=none;fillColor=none;spacingLeft=4;spacingRight=4;overflow=hidden;rotatable=0;points=[[0,0.5],[1,0.5]];portConstraint=eastwest;fontSize=12;whiteSpace=wrap;html=1;" vertex="1" parent="CDVn339J-_WxzRMTgr8X-58">
          <mxGeometry y="56" width="195" height="30" as="geometry" />
        </mxCell>
        <mxCell id="CDVn339J-_WxzRMTgr8X-61" style="edgeStyle=orthogonalEdgeStyle;rounded=0;orthogonalLoop=1;jettySize=auto;html=1;entryX=1.038;entryY=0.208;entryDx=0;entryDy=0;entryPerimeter=0;" edge="1" parent="1" source="CDVn339J-_WxzRMTgr8X-54" target="CDVn339J-_WxzRMTgr8X-41">
          <mxGeometry relative="1" as="geometry" />
        </mxCell>
        <mxCell id="CDVn339J-_WxzRMTgr8X-62" style="edgeStyle=orthogonalEdgeStyle;rounded=0;orthogonalLoop=1;jettySize=auto;html=1;entryX=0.437;entryY=-0.002;entryDx=0;entryDy=0;entryPerimeter=0;" edge="1" parent="1" source="CDVn339J-_WxzRMTgr8X-15" target="CDVn339J-_WxzRMTgr8X-39">
          <mxGeometry relative="1" as="geometry" />
        </mxCell>
        <mxCell id="CDVn339J-_WxzRMTgr8X-64" style="edgeStyle=orthogonalEdgeStyle;rounded=0;orthogonalLoop=1;jettySize=auto;html=1;entryX=0.502;entryY=1.024;entryDx=0;entryDy=0;entryPerimeter=0;" edge="1" parent="1" source="CDVn339J-_WxzRMTgr8X-54" target="CDVn339J-_WxzRMTgr8X-38">
          <mxGeometry relative="1" as="geometry">
            <Array as="points">
              <mxPoint x="717" y="712" />
              <mxPoint x="287" y="712" />
            </Array>
          </mxGeometry>
        </mxCell>
      </root>
    </mxGraphModel>
  </diagram>
</mxfile>
